<?xml version="1.0" encoding="iso-8859-1"?>
<!-- Uploaded to: SVG Repo, www.svgrepo.com, Generator: SVG Repo Mixer Tools -->
<!DOCTYPE svg PUBLIC "-//W3C//DTD SVG 1.1//EN" "http://www.w3.org/Graphics/SVG/1.1/DTD/svg11.dtd">
<svg fill="#000000" height="800px" width="800px" version="1.1" id="Capa_1" xmlns="http://www.w3.org/2000/svg" xmlns:xlink="http://www.w3.org/1999/xlink" 
	 viewBox="0 0 392.619 392.619" xml:space="preserve">
<g>
	<path d="M297.674,151.733h-61.596l-19.034-58.58c-2.928-9.011-11.261-15.065-20.735-15.065s-17.808,6.055-20.735,15.065
		l-19.034,58.58H94.945c-9.475,0-17.807,6.054-20.735,15.064c-2.928,9.011,0.255,18.807,7.92,24.375l49.833,36.207l-19.035,58.581
		c-2.185,6.725-1.074,13.834,3.047,19.505c4.125,5.678,10.747,9.066,17.714,9.065c4.591-0.001,9.013-1.451,12.79-4.195
		l49.832-36.204l49.832,36.205c3.777,2.744,8.201,4.194,12.792,4.194c6.966,0,13.588-3.39,17.712-9.067
		c4.12-5.67,5.23-12.779,3.045-19.504l-19.034-58.58l49.833-36.207c7.665-5.568,10.848-15.364,7.92-24.375
		C315.481,157.787,307.149,151.733,297.674,151.733z M238.205,206.61c-7.665,5.569-10.848,15.365-7.919,24.376l13.078,40.25
		l-34.237-24.875c-3.75-2.726-8.181-4.165-12.816-4.165s-9.067,1.439-12.815,4.164l-34.239,24.876l13.079-40.25
		c2.928-9.011-0.255-18.807-7.92-24.376l-34.239-24.877h42.321c9.475,0,17.807-6.054,20.735-15.065l13.078-40.249l13.078,40.249
		c2.928,9.012,11.261,15.065,20.735,15.065h42.321L238.205,206.61z"/>
	<path d="M310.724,0.929H81.896C36.738,0.929,0,37.667,0,82.825v226.97c0,45.157,36.738,81.896,81.896,81.896h228.828
		c45.157,0,81.896-36.738,81.896-81.896V82.825C392.619,37.667,355.881,0.929,310.724,0.929z M362.619,309.795
		c0,28.615-23.28,51.896-51.896,51.896H81.896C53.28,361.69,30,338.41,30,309.795V82.825c0-28.616,23.28-51.896,51.896-51.896
		h228.828c28.615,0,51.896,23.28,51.896,51.896V309.795z"/>
</g>
</svg>